<svg xmlns="http://www.w3.org/2000/svg" width="640" height="300" viewBox="0 0 640 300" role="img" aria-labelledby="title desc">
<title id="title">awesome-dot</title>
<desc id="desc">Community skills for dot.</desc>
<rect width="640" height="300" fill="#F5F3EC"/>
<g aria-hidden="true">
<path fill="#1B1B1B" d="M92.636 151.572C90.62 149.64 89.948 148.296 89.948 146.028V120.828C89.948 111.588 83.648 106.884 71.384 106.884C59.12 106.884 52.736 112.092 51.98 122.592H63.32C63.908 117.888 65.84 116.376 71.636 116.376C76.172 116.376 78.44 117.888 78.44 120.912C78.44 122.424 77.684 123.684 76.424 124.44C74.828 125.28 74.828 125.28 69.032 126.204L64.328 127.044C55.34 128.556 50.972 133.176 50.972 141.324C50.972 149.472 56.432 154.932 64.748 154.932C69.788 154.932 74.324 152.832 78.524 148.464C78.524 150.816 78.776 151.656 79.868 153H92.636ZM78.44 134.772C78.44 141.576 75.08 145.44 69.116 145.44C65.168 145.44 62.732 143.34 62.732 139.98C62.732 136.452 64.58 134.772 69.452 133.764L73.484 133.008C76.592 132.42 77.096 132.252 78.44 131.58ZM144.016 153 156.868 107.64H144.688L137.8 139.392L130.996 107.64H119.236L112.348 139.392L105.124 107.64H92.944L105.712 153H117.808L125.032 120.996L131.836 153ZM199.092 134.016C199.176 133.008 199.176 132.588 199.176 132C199.176 127.464 198.504 123.264 197.412 120.072C194.388 111.84 187.08 106.884 177.924 106.884C164.904 106.884 156.924 116.292 156.924 131.496C156.924 146.028 164.82 154.932 177.672 154.932C187.836 154.932 196.068 149.22 198.672 140.232H187.08C185.652 143.844 182.376 145.944 178.092 145.944C174.732 145.944 172.044 144.516 170.364 141.996C169.272 140.316 168.852 138.3 168.684 134.016ZM168.852 126.204C169.608 119.232 172.548 115.872 177.756 115.872C183.132 115.872 186.324 119.484 186.912 126.204ZM241.4 122.256C241.232 112.68 233.84 106.884 221.66 106.884C210.152 106.884 203.012 112.68 203.012 122.004C203.012 125.028 203.936 127.632 205.532 129.396C207.128 130.992 208.556 131.748 212.924 133.176L226.952 137.544C229.892 138.468 230.9 139.392 230.9 141.24C230.9 144.012 227.624 145.692 222.164 145.692C219.056 145.692 216.704 145.188 215.192 144.096C213.932 143.172 213.428 142.248 212.924 139.812H201.416C201.752 149.808 209.06 154.932 222.836 154.932C229.136 154.932 233.924 153.588 237.284 150.9C240.644 148.212 242.66 144.012 242.66 139.56C242.66 133.68 239.72 129.9 233.756 128.136L218.888 123.852C215.612 122.844 214.772 122.172 214.772 120.324C214.772 117.804 217.46 116.124 221.576 116.124C227.204 116.124 229.976 118.14 230.06 122.256ZM268.168 106.884C254.308 106.884 245.824 116.04 245.824 130.908C245.824 145.86 254.308 154.932 268.252 154.932C282.112 154.932 290.68 145.86 290.68 131.244C290.68 115.872 282.364 106.884 268.168 106.884ZM268.252 116.376C274.72 116.376 278.92 122.172 278.92 131.076C278.92 139.56 274.552 145.44 268.252 145.44C261.868 145.44 257.584 139.644 257.584 130.908C257.584 122.172 261.868 116.376 268.252 116.376ZM296.448 107.64V153H308.208V125.784C308.208 120.156 311.232 116.88 316.272 116.88C320.22 116.88 322.656 119.148 322.656 122.76V153H334.416V125.784C334.416 120.24 337.44 116.88 342.48 116.88C346.428 116.88 348.864 119.148 348.864 122.76V153H360.624V120.912C360.624 112.092 355.248 106.884 346.176 106.884C340.38 106.884 336.432 108.9 332.904 113.604C330.72 109.32 326.184 106.884 320.556 106.884C315.348 106.884 311.988 108.564 308.124 113.268V107.64ZM407.3 134.016C407.384 133.008 407.384 132.588 407.384 132C407.384 127.464 406.712 123.264 405.62 120.072C402.596 111.84 395.288 106.884 386.132 106.884C373.112 106.884 365.132 116.292 365.132 131.496C365.132 146.028 373.028 154.932 385.88 154.932C396.044 154.932 404.276 149.22 406.88 140.232H395.288C393.86 143.844 390.584 145.944 386.3 145.944C382.94 145.944 380.252 144.516 378.572 141.996C377.48 140.316 377.06 138.3 376.892 134.016ZM377.06 126.204C377.816 119.232 380.756 115.872 385.964 115.872C391.34 115.872 394.532 119.484 395.12 126.204ZM432.22 124.272H409.372V135.612H432.22ZM466.38 153H478.14V91.764H466.38V113.52C463.44 108.984 459.576 106.884 453.864 106.884C443.028 106.884 434.796 117.3 434.796 130.992C434.796 137.124 436.644 143.34 439.668 147.708C442.776 152.16 448.32 154.932 453.864 154.932C459.576 154.932 463.44 152.916 466.38 148.38ZM456.468 116.712C462.432 116.712 466.38 122.424 466.38 131.16C466.38 139.392 462.348 145.104 456.468 145.104C450.588 145.104 446.556 139.308 446.556 130.992C446.556 122.508 450.588 116.712 456.468 116.712ZM506.168 106.884C492.308 106.884 483.824 116.04 483.824 130.908C483.824 145.86 492.308 154.932 506.252 154.932C520.112 154.932 528.68 145.86 528.68 131.244C528.68 115.872 520.364 106.884 506.168 106.884ZM506.252 116.376C512.72 116.376 516.92 122.172 516.92 131.076C516.92 139.56 512.552 145.44 506.252 145.44C499.868 145.44 495.584 139.644 495.584 130.908C495.584 122.172 499.868 116.376 506.252 116.376ZM554.692 108.564H548.14V96.384H536.38V108.564H530.584V116.376H536.38V144.264C536.38 151.404 540.16 154.932 547.888 154.932C550.576 154.932 552.508 154.68 554.692 154.008V145.776C553.516 145.944 552.928 146.028 552.004 146.028C548.896 146.028 548.14 145.104 548.14 141.072V116.376H554.692Z"/>
<circle cx="579.38" cy="143" r="10" fill="#FF5D36"/>
<path fill="#1B1B1B" d="M188.804 205.916C187.992 201.436 185.416 199.252 180.936 199.252C178.192 199.252 175.98 200.12 174.468 201.8C172.62 203.816 171.612 206.728 171.612 210.032C171.612 213.392 172.648 216.276 174.552 218.264C176.148 219.888 178.164 220.644 180.824 220.644C185.808 220.644 188.608 217.956 189.224 212.552H186.536C186.312 213.952 186.032 214.904 185.612 215.716C184.772 217.396 183.036 218.348 180.852 218.348C176.792 218.348 174.216 215.1 174.216 210.004C174.216 204.768 176.652 201.548 180.628 201.548C182.28 201.548 183.82 202.024 184.66 202.836C185.416 203.536 185.836 204.376 186.144 205.916ZM198.2 204.908C194.056 204.908 191.592 207.848 191.592 212.776C191.592 217.732 194.056 220.644 198.228 220.644C202.372 220.644 204.864 217.704 204.864 212.888C204.864 207.792 202.456 204.908 198.2 204.908ZM198.228 207.064C200.86 207.064 202.428 209.22 202.428 212.86C202.428 216.332 200.804 218.488 198.228 218.488C195.624 218.488 194.028 216.332 194.028 212.776C194.028 209.22 195.624 207.064 198.228 207.064ZM208.212 205.328V220H210.564V210.788C210.564 208.66 212.104 206.952 214.008 206.952C215.744 206.952 216.724 208.016 216.724 209.892V220H219.076V210.788C219.076 208.66 220.616 206.952 222.52 206.952C224.228 206.952 225.236 208.044 225.236 209.892V220H227.588V208.996C227.588 206.364 226.076 204.908 223.332 204.908C221.372 204.908 220.196 205.496 218.824 207.148C217.956 205.58 216.78 204.908 214.876 204.908C212.916 204.908 211.6 205.636 210.368 207.4V205.328ZM231.636 205.328V220H233.988V210.788C233.988 208.66 235.528 206.952 237.432 206.952C239.168 206.952 240.148 208.016 240.148 209.892V220H242.5V210.788C242.5 208.66 244.04 206.952 245.944 206.952C247.652 206.952 248.66 208.044 248.66 209.892V220H251.012V208.996C251.012 206.364 249.5 204.908 246.756 204.908C244.796 204.908 243.62 205.496 242.248 207.148C241.38 205.58 240.204 204.908 238.3 204.908C236.34 204.908 235.024 205.636 233.792 207.4V205.328ZM266.596 220V205.328H264.272V213.644C264.272 216.64 262.704 218.6 260.268 218.6C258.42 218.6 257.244 217.48 257.244 215.716V205.328H254.92V216.64C254.92 219.076 256.74 220.644 259.596 220.644C261.752 220.644 263.124 219.888 264.496 217.956V220ZM270.728 205.328V220H273.08V211.908C273.08 208.912 274.648 206.952 277.056 206.952C278.904 206.952 280.08 208.072 280.08 209.836V220H282.404V208.912C282.404 206.476 280.584 204.908 277.756 204.908C275.572 204.908 274.172 205.748 272.884 207.792V205.328ZM288.636 205.328H286.312V220H288.636ZM288.636 199.588H286.284V202.528H288.636ZM297.864 205.328H295.456V201.296H293.132V205.328H291.144V207.232H293.132V218.32C293.132 219.832 294.14 220.644 295.96 220.644C296.576 220.644 297.08 220.588 297.864 220.448V218.488C297.528 218.572 297.22 218.6 296.744 218.6C295.736 218.6 295.456 218.32 295.456 217.284V207.232H297.864ZM309.5 205.328 305.44 216.752 301.688 205.328H299.196L304.152 220.056L303.256 222.38C302.864 223.416 302.36 223.808 301.38 223.808C300.988 223.808 300.652 223.752 300.148 223.64V225.74C300.624 225.992 301.1 226.104 301.716 226.104C302.472 226.104 303.284 225.852 303.9 225.404C304.628 224.872 305.048 224.256 305.496 223.08L312.02 205.328ZM332.884 209.416C332.856 206.532 330.952 204.908 327.564 204.908C324.148 204.908 321.936 206.672 321.936 209.388C321.936 211.684 323.112 212.776 326.584 213.616L328.768 214.148C330.392 214.54 331.036 215.128 331.036 216.164C331.036 217.564 329.664 218.488 327.62 218.488C326.36 218.488 325.296 218.124 324.708 217.508C324.344 217.088 324.176 216.668 324.036 215.632H321.572C321.684 219.02 323.588 220.644 327.424 220.644C331.12 220.644 333.472 218.824 333.472 215.996C333.472 213.812 332.24 212.608 329.328 211.908L327.088 211.376C325.184 210.928 324.372 210.312 324.372 209.276C324.372 207.904 325.576 207.064 327.48 207.064C329.356 207.064 330.364 207.876 330.42 209.416ZM338.668 199.588H336.344V220H338.668V214.288L340.936 212.048L345.892 220H348.776L342.784 210.396L347.88 205.328H344.884L338.668 211.544ZM353.02 205.328H350.696V220H353.02ZM353.02 199.588H350.668V202.528H353.02ZM359.392 199.588H357.04V220H359.392ZM365.708 199.588H363.356V220H365.708ZM380.032 209.416C380.004 206.532 378.1 204.908 374.712 204.908C371.296 204.908 369.084 206.672 369.084 209.388C369.084 211.684 370.26 212.776 373.732 213.616L375.916 214.148C377.54 214.54 378.184 215.128 378.184 216.164C378.184 217.564 376.812 218.488 374.768 218.488C373.508 218.488 372.444 218.124 371.856 217.508C371.492 217.088 371.324 216.668 371.184 215.632H368.72C368.832 219.02 370.736 220.644 374.572 220.644C378.268 220.644 380.62 218.824 380.62 215.996C380.62 213.812 379.388 212.608 376.476 211.908L374.236 211.376C372.332 210.928 371.52 210.312 371.52 209.276C371.52 207.904 372.724 207.064 374.628 207.064C376.504 207.064 377.512 207.876 377.568 209.416ZM396.976 205.328H394.54V203.032C394.54 202.052 395.072 201.548 396.164 201.548C396.36 201.548 396.444 201.548 396.976 201.576V199.644C396.444 199.532 396.136 199.504 395.66 199.504C393.504 199.504 392.216 200.736 392.216 202.836V205.328H390.256V207.232H392.216V220H394.54V207.232H396.976ZM405.252 204.908C401.108 204.908 398.644 207.848 398.644 212.776C398.644 217.732 401.108 220.644 405.28 220.644C409.424 220.644 411.916 217.704 411.916 212.888C411.916 207.792 409.508 204.908 405.252 204.908ZM405.28 207.064C407.912 207.064 409.48 209.22 409.48 212.86C409.48 216.332 407.856 218.488 405.28 218.488C402.676 218.488 401.08 216.332 401.08 212.776C401.08 209.22 402.676 207.064 405.28 207.064ZM415.236 205.328V220H417.588V212.384C417.616 208.856 419.072 207.288 422.292 207.372V204.992C421.9 204.936 421.676 204.908 421.396 204.908C419.884 204.908 418.736 205.804 417.392 207.988V205.328ZM444.472 199.588H442.148V207.176C441.168 205.692 439.6 204.908 437.64 204.908C433.832 204.908 431.34 207.96 431.34 212.636C431.34 217.592 433.748 220.644 437.724 220.644C439.74 220.644 441.14 219.888 442.4 218.068V220H444.472ZM438.032 207.092C440.552 207.092 442.148 209.304 442.148 212.832C442.148 216.22 440.524 218.46 438.06 218.46C435.484 218.46 433.776 216.192 433.776 212.776C433.776 209.36 435.484 207.092 438.032 207.092ZM453.896 204.908C449.752 204.908 447.288 207.848 447.288 212.776C447.288 217.732 449.752 220.644 453.924 220.644C458.068 220.644 460.56 217.704 460.56 212.888C460.56 207.792 458.152 204.908 453.896 204.908ZM453.924 207.064C456.556 207.064 458.124 209.22 458.124 212.86C458.124 216.332 456.5 218.488 453.924 218.488C451.32 218.488 449.724 216.332 449.724 212.776C449.724 209.22 451.32 207.064 453.924 207.064ZM469.06 205.328H466.652V201.296H464.328V205.328H462.34V207.232H464.328V218.32C464.328 219.832 465.336 220.644 467.156 220.644C467.772 220.644 468.276 220.588 469.06 220.448V218.488C468.724 218.572 468.416 218.6 467.94 218.6C466.932 218.6 466.652 218.32 466.652 217.284V207.232H469.06Z"/>
</g>
</svg>
