<svg xmlns="http://www.w3.org/2000/svg" width="640" height="780" viewBox="0 0 640 780" role="img" aria-labelledby="title desc">
<title id="title">awesome-dot: community skills for dot</title>
<desc id="desc">Reusable workflows for presentations, forms, code, and creative projects. Pick a task, follow the workflow, and check the result. The orbital mark is original decorative artwork.</desc>
<g font-family="Arial, Helvetica, sans-serif"><rect width="640" height="780" rx="18" fill="#17221D"/>
<circle cx="40" cy="46" r="8" fill="#CEE96D"/>
<path d="M32 80H608" stroke="#485449"/>
<text x="61" y="53" font-size="20" fill="#DDE3D7" font-weight="700" letter-spacing="1.8">COMMUNITY SKILLS FOR DOT</text><text x="29" y="168" font-size="83" fill="#F4F2E9" font-weight="700" letter-spacing="-4">awesome-dot</text><text x="32" y="218" font-size="29" fill="#CEE96D" font-weight="400" >Reusable workflows.</text><text x="32" y="256" font-size="29" fill="#CEE96D" font-weight="400" >Inspectable work.</text><g transform="translate(328 430) scale(0.72)" aria-hidden="true">
      <ellipse rx="214" ry="86" transform="rotate(-37)" fill="none" stroke="#65716A" stroke-width="1.5"/>
      <ellipse rx="192" ry="192" fill="none" stroke="#35433A" stroke-width="1.5" stroke-dasharray="3 12"/>
      <circle r="138" fill="#CEE96D"/>
      <path d="M-118 -71A138 138 0 0 1 118 71L71 43A83 83 0 0 0-71-43Z" fill="#E4FA97"/>
      <circle r="77" fill="#17221D"/>
      <circle r="62" fill="none" stroke="#354D39" stroke-width="1.5"/>
      <path d="M-192 88C-112 76 80-27 180-123" fill="none" stroke="#F4F2E9" stroke-width="2"/>
      <circle cx="156" cy="-105" r="13" fill="#FD8D62"/>
      <circle cx="-175" cy="98" r="5" fill="#F4F2E9"/>
      <path d="M153 104v24m-12-12h24" stroke="#B5A6EF" stroke-width="3"/>
      <circle cx="-139" cy="-150" r="5" fill="#B5A6EF"/>
    </g><text x="32" y="611" font-size="20" fill="#C1CABF" font-weight="400" >Presentations · Forms · Code · Creative projects</text><path d="M0 646H640V762Q640 780 622 780H18Q0 780 0 762Z" fill="#CEE96D"/><text x="32" y="678" font-size="20" fill="#50622E" font-weight="700" >01</text><text x="74" y="678" font-size="20" fill="#17221D" font-weight="700" letter-spacing="0.5">PICK A TASK</text><text x="32" y="718" font-size="20" fill="#50622E" font-weight="700" >02</text><text x="74" y="718" font-size="20" fill="#17221D" font-weight="700" letter-spacing="0.5">FOLLOW THE WORKFLOW</text><text x="32" y="758" font-size="20" fill="#50622E" font-weight="700" >03</text><text x="74" y="758" font-size="20" fill="#17221D" font-weight="700" letter-spacing="0.5">CHECK THE RESULT</text></g>
</svg>
